<?xml version="1.0" encoding="UTF-8" standalone="no"?>
<!-- Created with Inkscape (http://www.inkscape.org/) -->

<svg
   xmlns:dc="http://purl.org/dc/elements/1.1/"
   xmlns:cc="http://creativecommons.org/ns#"
   xmlns:rdf="http://www.w3.org/1999/02/22-rdf-syntax-ns#"
   xmlns:svg="http://www.w3.org/2000/svg"
   xmlns="http://www.w3.org/2000/svg"
   xmlns:sodipodi="http://sodipodi.sourceforge.net/DTD/sodipodi-0.dtd"
   xmlns:inkscape="http://www.inkscape.org/namespaces/inkscape"
   width="8.5in"
   height="4.5in"
   viewBox="0 0 215.9 114.3"
   version="1.1"
   id="svg4026"
   inkscape:version="0.92.3 (2405546, 2018-03-11)"
   sodipodi:docname="git.svg">
  <defs
     id="defs4020" />
  <sodipodi:namedview
     id="base"
     pagecolor="#ffffff"
     bordercolor="#666666"
     borderopacity="1.0"
     inkscape:pageopacity="0.0"
     inkscape:pageshadow="2"
     inkscape:zoom="0.35"
     inkscape:cx="4.2857143"
     inkscape:cy="560"
     inkscape:document-units="mm"
     inkscape:current-layer="layer1"
     showgrid="false"
     units="in"
     height="13in"
     inkscape:window-width="1920"
     inkscape:window-height="983"
     inkscape:window-x="0"
     inkscape:window-y="27"
     inkscape:window-maximized="1" />
  <metadata
     id="metadata4023">
    <rdf:RDF>
      <cc:Work
         rdf:about="">
        <dc:format>image/svg+xml</dc:format>
        <dc:type
           rdf:resource="http://purl.org/dc/dcmitype/StillImage" />
        <dc:title></dc:title>
      </cc:Work>
    </rdf:RDF>
  </metadata>
  <g
     inkscape:label="Layer 1"
     inkscape:groupmode="layer"
     id="layer1"
     transform="translate(0,-182.7)">
    <path
       class="st14"
       d="m 80.362641,242.09753 c 0,5.97958 -4.868334,10.84792 -10.847917,10.84792 m 10.847917,-10.84792 c 0,-5.97958 4.868333,-10.84792 10.847916,-10.84792 h 72.337083"
       id="path18"
       inkscape:connector-curvature="0"
       style="fill:none;stroke:#404040;stroke-width:1.05833328;stroke-miterlimit:10" />
    <circle
       class="st15"
       cx="102.69347"
       cy="231.24962"
       id="circle20"
       style="fill:#4ed1a1;stroke:#404040;stroke-width:1.05833328;stroke-miterlimit:10"
       r="5.5562501" />
    <circle
       class="st15"
       cx="128.09346"
       cy="231.24962"
       id="circle22"
       style="fill:#4ed1a1;stroke:#404040;stroke-width:1.05833328;stroke-miterlimit:10"
       r="5.5562501" />
    <path
       class="st6"
       d="M 24.535556,252.94545 H 69.514724"
       id="path24"
       inkscape:connector-curvature="0"
       style="fill:#b3e3ff;stroke:#404040;stroke-width:1.05833328;stroke-miterlimit:10" />
    <circle
       class="st8"
       cx="30.091806"
       cy="252.94545"
       id="circle26"
       style="fill:#ffffff;stroke:#404040;stroke-width:1.05833328;stroke-miterlimit:10"
       r="5.5562501" />
    <circle
       class="st8"
       cx="55.49181"
       cy="252.94545"
       id="circle28"
       style="fill:#ffffff;stroke:#404040;stroke-width:1.05833328;stroke-miterlimit:10"
       r="5.5562501" />
    <path
       class="st14"
       d="m 152.69972,242.09753 c 0,5.97958 -4.86833,10.84792 -10.84792,10.84792 m 10.84792,-10.84792 c 0,-5.97958 4.86833,-10.84792 10.84792,-10.84792 h 5.92666"
       id="path30"
       inkscape:connector-curvature="0"
       style="fill:none;stroke:#404040;stroke-width:1.05833328;stroke-miterlimit:10" />
    <circle
       class="st15"
       cx="175.03056"
       cy="231.24962"
       id="circle32"
       style="fill:#4ed1a1;stroke:#404040;stroke-width:1.05833328;stroke-miterlimit:10"
       r="5.5562501" />
    <path
       class="st6"
       d="M 65.09618,252.94545 H 141.8518"
       id="path34"
       inkscape:connector-curvature="0"
       style="fill:#b3e3ff;stroke:#404040;stroke-width:1.05833328;stroke-miterlimit:10" />
    <circle
       class="st6"
       cx="102.42889"
       cy="252.94545"
       id="circle36"
       style="fill:#b3e3ff;stroke:#404040;stroke-width:1.05833328;stroke-miterlimit:10"
       r="5.5562501" />
    <circle
       class="st16"
       cx="127.82889"
       cy="252.94545"
       id="circle38"
       style="fill:#b3e3ff;stroke:#404040;stroke-width:1.05833328;stroke-linejoin:round;stroke-miterlimit:10"
       r="5.5562501" />
    <circle
       class="st16"
       cx="102.42889"
       cy="252.94545"
       id="circle40"
       style="fill:#b3e3ff;stroke:#404040;stroke-width:1.05833328;stroke-linejoin:round;stroke-miterlimit:10"
       r="5.5562501" />
    <path
       class="st5"
       d="m 161.80138,193.96982 h 26.45834 v 13.22917 h -26.45834 z"
       id="path42"
       inkscape:connector-curvature="0"
       style="fill:#4ed1a1;stroke:#404040;stroke-width:1.05833328;stroke-linecap:round;stroke-linejoin:round;stroke-miterlimit:10" />
    <path
       class="st9"
       d="m 167.93972,202.17191 v -2.80459 h 1.71979 v 0.37042 h -1.32292 v 0.89958 h 1.19063 v 0.37042 h -1.21708 v 1.19062 h -0.37042 z m 3.86292,-0.55563 c -0.10584,0.34396 -0.42334,0.60854 -0.84667,0.60854 -0.50271,0 -0.9525,-0.37041 -0.9525,-1.03187 0,-0.60854 0.42333,-1.00542 0.89958,-1.00542 0.58209,0 0.92604,0.39688 0.92604,1.00542 v 0.13229 h -1.42875 c 0,0.34396 0.26458,0.58208 0.58209,0.58208 0.3175,0 0.47624,-0.15875 0.52916,-0.39687 z m -0.37042,-0.60854 c 0,-0.26458 -0.18521,-0.47625 -0.52917,-0.47625 -0.3175,0 -0.50271,0.23812 -0.52916,0.47625 z m 1.50812,0.0529 0.50271,-0.0794 c 0.10584,-0.0265 0.15875,-0.0794 0.15875,-0.13229 0,-0.18521 -0.13229,-0.34396 -0.42333,-0.34396 -0.26458,0 -0.39688,0.15875 -0.42333,0.39687 l -0.37042,-0.0794 c 0.0529,-0.37041 0.37042,-0.60854 0.79375,-0.60854 0.58208,0 0.79375,0.3175 0.79375,0.68792 v 0.9525 c 0,0.15875 0.0265,0.26458 0.0265,0.3175 h -0.37042 c 0,-0.0529 -0.0265,-0.13229 -0.0265,-0.26458 -0.0794,0.13229 -0.26458,0.3175 -0.60854,0.3175 -0.39687,0 -0.635,-0.26459 -0.635,-0.58209 0,-0.34396 0.26458,-0.52916 0.58208,-0.58208 z m 0.66146,0.29104 v -0.0794 l -0.58208,0.0794 c -0.15875,0.0265 -0.29104,0.10583 -0.29104,0.29104 0,0.13229 0.10583,0.26459 0.3175,0.26459 0.3175,0 0.55562,-0.15875 0.55562,-0.55563 z m 1.66688,-1.11125 h 0.42333 v 0.34396 h -0.42333 v 1.00542 c 0,0.1852 0.0794,0.26458 0.26458,0.26458 0.0529,0 0.10583,0 0.15875,-0.0265 v 0.3175 c -0.0265,0 -0.13229,0.0265 -0.26458,0.0265 -0.3175,0 -0.52917,-0.21167 -0.52917,-0.55563 v -1.05833 h -0.37042 v -0.34396 h 0.10584 c 0.21166,0 0.29104,-0.13229 0.29104,-0.29104 v -0.3175 h 0.34396 z m 1.79916,1.98438 c -0.44979,0 -0.71437,-0.34396 -0.71437,-0.7673 v -1.19062 h 0.37041 v 1.13771 c 0,0.26458 0.10584,0.50271 0.42334,0.50271 0.29104,0 0.44979,-0.21167 0.44979,-0.47625 v -1.13771 h 0.37042 v 1.56104 c 0,0.15875 0,0.29104 0.0265,0.34396 h -0.37042 c 0,-0.0529 -0.0265,-0.15875 -0.0265,-0.23813 -0.0794,0.15875 -0.3175,0.26459 -0.52917,0.26459 z m 2.80459,-1.5875 h -0.15875 c -0.31751,0 -0.52917,0.15875 -0.52917,0.58208 v 0.9525 h -0.37042 v -1.905 h 0.37042 v 0.34396 c 0.13229,-0.29104 0.37042,-0.37042 0.58208,-0.37042 h 0.1323 v 0.39688 z m 2.24896,0.97895 c -0.10584,0.34396 -0.42334,0.60855 -0.84667,0.60855 -0.50271,0 -0.9525,-0.37042 -0.9525,-1.03188 0,-0.60854 0.42333,-1.00542 0.89958,-1.00542 0.58209,0 0.92604,0.39688 0.92604,1.00542 v 0.13229 h -1.42875 c 0,0.34396 0.26458,0.58209 0.58209,0.58209 0.3175,0 0.47624,-0.15875 0.52916,-0.39688 z m -0.39688,-0.60854 c 0,-0.26458 -0.18521,-0.47625 -0.52917,-0.47625 -0.3175,0 -0.5027,0.23813 -0.52916,0.47625 z"
       id="path44"
       inkscape:connector-curvature="0"
       style="fill:#404040;stroke-width:0.26458332" />
    <path
       class="st11"
       d="m 175.03055,219.31691 v -6.21771 m 2.8575,3.91583 -2.8575,2.8575 -2.88396,-2.8575"
       id="path46"
       inkscape:connector-curvature="0"
       style="fill:none;stroke:#404040;stroke-width:1.05833328;stroke-linecap:round;stroke-linejoin:round;stroke-miterlimit:10" />
    <path
       class="st16"
       d="m 114.59972,276.99607 h 26.45833 v 13.22917 h -26.45833 z"
       id="path48"
       inkscape:connector-curvature="0"
       style="fill:#b3e3ff;stroke:#404040;stroke-width:1.05833328;stroke-linejoin:round;stroke-miterlimit:10" />
    <path
       class="st9"
       d="m 123.93952,285.19816 v -2.19605 l -0.9525,2.19605 h -0.34396 l -0.9525,-2.19605 v 2.19605 h -0.39688 v -2.80459 h 0.52917 l 0.97896,2.30188 1.00542,-2.30188 h 0.52916 v 2.80459 z m 1.71979,-1.0848 0.50271,-0.0794 c 0.10583,-0.0265 0.15875,-0.0794 0.15875,-0.13229 0,-0.18521 -0.13229,-0.34396 -0.42333,-0.34396 -0.26459,0 -0.39688,0.15875 -0.42334,0.39688 l -0.37041,-0.0794 c 0.0529,-0.37042 0.37041,-0.60854 0.79375,-0.60854 0.58207,0 0.79374,0.3175 0.79374,0.68791 v 0.9525 c 0,0.15875 0.0265,0.26459 0.0265,0.3175 h -0.37041 c 0,-0.0529 -0.0265,-0.13229 -0.0265,-0.26458 -0.0794,0.13229 -0.26458,0.3175 -0.60854,0.3175 -0.39688,0 -0.635,-0.26458 -0.635,-0.58208 0,-0.34396 0.23812,-0.52917 0.58208,-0.58209 z m 0.66146,0.26459 v -0.0794 l -0.58208,0.0794 c -0.15875,0.0265 -0.29104,0.10583 -0.29104,0.29104 0,0.13229 0.10583,0.26458 0.3175,0.26458 0.29104,0 0.55562,-0.13229 0.55562,-0.55562 z m 1.29645,0.21166 c 0.0265,0.21167 0.1852,0.34396 0.44979,0.34396 0.21167,0 0.3175,-0.13229 0.3175,-0.26458 0,-0.13229 -0.0794,-0.21167 -0.23812,-0.23813 l -0.3175,-0.0794 c -0.29105,-0.0529 -0.47625,-0.26458 -0.47625,-0.52916 0,-0.3175 0.31749,-0.60854 0.68791,-0.60854 0.52917,0 0.68792,0.34395 0.71438,0.5027 l -0.3175,0.1323 c -0.0265,-0.10584 -0.10584,-0.3175 -0.39688,-0.3175 -0.18521,0 -0.3175,0.13229 -0.3175,0.26458 0,0.10583 0.0794,0.21167 0.21167,0.23812 l 0.3175,0.0794 c 0.34396,0.0794 0.52917,0.29105 0.52917,0.55563 0,0.26458 -0.23813,0.58208 -0.68792,0.58208 -0.52917,0 -0.74083,-0.34396 -0.76729,-0.55562 z m 2.32833,-1.29645 h 0.42334 v 0.34395 h -0.42334 v 1.00542 c 0,0.18521 0.0794,0.26458 0.26459,0.26458 0.0529,0 0.10583,0 0.15875,-0.0265 v 0.3175 c -0.0265,0 -0.1323,0.0265 -0.26459,0.0265 -0.3175,0 -0.52916,-0.21166 -0.52916,-0.55562 v -1.05833 h -0.37042 v -0.34396 h 0.10583 c 0.21167,0 0.29104,-0.13229 0.29104,-0.29104 v -0.3175 h 0.34396 z m 2.75167,1.37583 c -0.10583,0.34396 -0.42334,0.60854 -0.84667,0.60854 -0.50271,0 -0.9525,-0.37042 -0.9525,-1.03187 0,-0.60855 0.42334,-1.00542 0.89958,-1.00542 0.58209,0 0.92604,0.39687 0.92604,1.00542 v 0.10583 h -1.4552 c 0,0.34396 0.26458,0.58208 0.58208,0.58208 0.3175,0 0.47625,-0.15875 0.52917,-0.39687 z m -0.37042,-0.60854 c 0,-0.26459 -0.18521,-0.47625 -0.52916,-0.47625 -0.3175,0 -0.50271,0.23812 -0.52917,0.47625 z m 2.11667,-0.39688 h -0.15875 c -0.3175,0 -0.52917,0.15875 -0.52917,0.58209 v 0.9525 h -0.37041 v -1.905 h 0.37041 v 0.34395 c 0.13229,-0.29104 0.37042,-0.37041 0.58208,-0.37041 h 0.13229 v 0.39687 z"
       id="path50"
       inkscape:connector-curvature="0"
       style="fill:#404040;stroke-width:0.26458332" />
    <path
       class="st11"
       d="m 127.82889,264.69295 v 6.21771 m -2.85749,-3.91584 2.85749,-2.88396 2.88395,2.88396"
       id="path52"
       inkscape:connector-curvature="0"
       style="fill:none;stroke:#404040;stroke-width:1.05833328;stroke-linecap:round;stroke-linejoin:round;stroke-miterlimit:10" />
    <path
       inkscape:connector-curvature="0"
       class="st5"
       d="m 88.895199,224.80614 h 26.458331 v 13.22917 H 88.895199 Z"
       id="path42-7"
       style="fill:#4ed1a1;stroke:#404040;stroke-width:1.05833328;stroke-linecap:round;stroke-linejoin:round;stroke-miterlimit:10" />
    <text
       xml:space="preserve"
       style="font-style:normal;font-weight:normal;font-size:3.52777767px;line-height:1.25;font-family:sans-serif;letter-spacing:0px;word-spacing:0px;fill:#000000;fill-opacity:1;stroke:none;stroke-width:0.26458332"
       x="91.942253"
       y="232.46504"
       id="text3918"><tspan
         sodipodi:role="line"
         id="tspan3916"
         x="91.942253"
         y="232.46504"
         style="stroke-width:0.26458332">#DeadBeef</tspan></text>
    <path
       inkscape:connector-curvature="0"
       class="st5"
       d="m 17.359322,215.85858 h 26.45833 v 13.22917 h -26.45833 z"
       id="path42-5"
       style="fill:#ffffff;stroke:#404040;stroke-width:1.05833328;stroke-linecap:round;stroke-linejoin:round;stroke-miterlimit:10" />
    <path
       inkscape:connector-curvature="0"
       class="st11"
       d="m 30.588487,241.20566 v -6.2177 m 2.8575,3.91583 -2.8575,2.8575 -2.883956,-2.8575"
       id="path46-2"
       style="fill:none;stroke:#404040;stroke-width:1.05833328;stroke-linecap:round;stroke-linejoin:round;stroke-miterlimit:10" />
    <text
       xml:space="preserve"
       style="font-style:normal;font-weight:normal;font-size:3.52777767px;line-height:1.25;font-family:sans-serif;letter-spacing:0px;word-spacing:0px;fill:#000000;fill-opacity:1;stroke:none;stroke-width:0.26458332"
       x="22.384907"
       y="223.5981"
       id="text3918-9"><tspan
         sodipodi:role="line"
         id="tspan3916-1"
         x="22.384907"
         y="223.5981"
         style="stroke-width:0.26458332">Tag/v1.0</tspan></text>
    <path
       inkscape:connector-curvature="0"
       class="st5"
       d="m 115.26427,193.40571 h 26.45832 v 13.22917 h -26.45832 z"
       id="path42-5-2"
       style="fill:#ffffff;stroke:#404040;stroke-width:1.05833328;stroke-linecap:round;stroke-linejoin:round;stroke-miterlimit:10" />
    <path
       inkscape:connector-curvature="0"
       class="st11"
       d="m 128.49342,218.7528 v -6.21771 m 2.8575,3.91583 -2.8575,2.8575 -2.88394,-2.8575"
       id="path46-2-7"
       style="fill:none;stroke:#404040;stroke-width:1.05833328;stroke-linecap:round;stroke-linejoin:round;stroke-miterlimit:10" />
    <text
       xml:space="preserve"
       style="font-style:normal;font-weight:normal;font-size:3.52777767px;line-height:1.25;font-family:sans-serif;letter-spacing:0px;word-spacing:0px;fill:#000000;fill-opacity:1;stroke:none;stroke-width:0.26458332"
       x="120.28984"
       y="201.14523"
       id="text3918-9-0"><tspan
         sodipodi:role="line"
         id="tspan3916-1-9"
         x="120.28984"
         y="201.14523"
         style="stroke-width:0.26458332">Tag/v1.1</tspan></text>
  </g>
</svg>
